<?xml version="1.0" encoding="UTF-8" standalone="no"?>
<svg
   xmlns:dc="http://purl.org/dc/elements/1.1/"
   xmlns:cc="http://creativecommons.org/ns#"
   xmlns:rdf="http://www.w3.org/1999/02/22-rdf-syntax-ns#"
   xmlns:svg="http://www.w3.org/2000/svg"
   xmlns="http://www.w3.org/2000/svg"
   xmlns:sodipodi="http://sodipodi.sourceforge.net/DTD/sodipodi-0.dtd"
   xmlns:inkscape="http://www.inkscape.org/namespaces/inkscape"
   viewBox="0 0 1093.847 187.07998"
   version="1.1"
   id="svg32"
   sodipodi:docname="Diabotical1.svg"
   width="1093.847"
   height="187.07999"
   inkscape:version="0.92.1 r15371">
  <metadata
     id="metadata36">
    <rdf:RDF>
      <cc:Work
         rdf:about="">
        <dc:format>image/svg+xml</dc:format>
        <dc:type
           rdf:resource="http://purl.org/dc/dcmitype/StillImage" />
        <dc:title>Asset 1Diabotical</dc:title>
      </cc:Work>
    </rdf:RDF>
  </metadata>
  <sodipodi:namedview
     pagecolor="#ffffff"
     bordercolor="#666666"
     borderopacity="1"
     objecttolerance="10"
     gridtolerance="10"
     guidetolerance="10"
     inkscape:pageopacity="0"
     inkscape:pageshadow="2"
     inkscape:window-width="1578"
     inkscape:window-height="889"
     id="namedview34"
     showgrid="false"
     showguides="false"
     height="250px"
     fit-margin-top="0"
     fit-margin-left="0"
     fit-margin-right="0"
     fit-margin-bottom="2.8"
     inkscape:zoom="0.74258662"
     inkscape:cx="548.23242"
     inkscape:cy="123.01933"
     inkscape:window-x="0"
     inkscape:window-y="0"
     inkscape:window-maximized="0"
     inkscape:current-layer="Dibotical" />
  <defs
     id="defs4">
    <style
       id="style2">.cls-1{fill:#f2f2f2;}.cls-2{fill:#00bdff;}</style>
  </defs>
  <title
     id="title6">Asset 1Diabotical</title>
  <g
     id="Layer_2"
     data-name="Layer 2"
     transform="translate(0.12565417,0.06058173)">
    <g
       id="Dibotical">
      <path
         class="cls-1"
         d="M 123,33.84 A 53.16,53.16 0 0 0 100.29,14 Q 85.67,7 66.75,7 H 0 l 11.73,25.7 h 53.71 q 14.79,0 23.76,8.3 8.97,8.3 9,23 0,14.67 -9,23 -9,8.33 -23.76,8.31 H 44.89 V 50.49 H 12.34 v 70.58 h 54.41 q 18.91,0 33.54,-7 A 53.1,53.1 0 0 0 123,94.17 q 8,-12.88 8,-30.17 0,-17.29 -8,-30.16 z"
         id="path8"
         inkscape:connector-curvature="0"
         style="fill:#f2f2f2" />
      <polygon
         class="cls-1"
         points="148.14,121.07 180.69,121.07 180.69,32.51 180.69,6.94 148.14,6.94 148.14,32.51 "
         id="polygon10"
         style="fill:#f2f2f2" />
      <path
         class="cls-1"
         d="m 272.92,6.94 h -32.06 l -50.8,114.13 h 33.21 l 9,-22.17 h 35.22 L 258,75.09 h -16.15 l 14.79,-36.52 14.8,36.52 9.56,23.81 9,22.17 h 33.87 z"
         id="path12"
         inkscape:connector-curvature="0"
         style="fill:#f2f2f2" />
      <path
         class="cls-1"
         d="m 945.51,6.94 h -32.06 l -50.8,114.13 h 33.21 l 9,-22.17 h 35.22 l -9.55,-23.81 h -16.09 l 14.79,-36.52 14.77,36.52 9.54,23.81 9,22.17 h 33.87 z"
         id="path14"
         inkscape:connector-curvature="0"
         style="fill:#f2f2f2" />
      <path
         class="cls-1"
         d="M 437,72.24 A 32.25,32.25 0 0 0 421.54,61.56 28,28 0 0 0 433,51.37 26.88,26.88 0 0 0 437,36.78 Q 437,23.08 425.49,15.01 413.98,6.94 392,6.94 h -58.91 v 114.13 h 62.15 q 23,0 35.18,-8.15 12.18,-8.15 12.17,-23.15 A 27.91,27.91 0 0 0 437,72.24 Z m -71.68,-42 h 22.36 q 16.43,0 16.44,10.92 0,11.09 -16.44,11.09 h -22.36 z m 27.29,67.49 H 365.32 V 74.6 h 27.29 q 17.1,0 17.1,11.58 0,11.58 -17.1,11.57 z"
         id="path16"
         inkscape:connector-curvature="0"
         style="fill:#f2f2f2" />
      <path
         class="cls-1"
         d="m 586.12,6.94 v 25.6 h 35.34 v 88.53 H 654 V 32.54 h 35.2 V 6.94 Z"
         id="path18"
         inkscape:connector-curvature="0"
         style="fill:#f2f2f2" />
      <polygon
         class="cls-1"
         points="701.37,121.07 733.92,121.07 733.92,32.51 733.92,6.94 701.37,6.94 701.37,32.51 "
         id="polygon20"
         style="fill:#f2f2f2" />
      <path
         class="cls-1"
         d="M 816.12,96.61 A 33.68,33.68 0 0 1 799.43,92.54 28.35,28.35 0 0 1 788.09,81 a 35,35 0 0 1 -4,-17 35.09,35.09 0 0 1 4,-17 28.35,28.35 0 0 1 11.34,-11.5 33.79,33.79 0 0 1 16.69,-4.07 q 15.95,0 27.13,13.37 L 864,26.18 a 54.77,54.77 0 0 0 -21,-16 70.29,70.29 0 0 0 -28.44,-5.54 q -18.09,0 -32.48,7.58 a 57,57 0 0 0 -22.6,21.11 57.9,57.9 0 0 0 -8.3,30.67 57.86,57.86 0 0 0 8.22,30.65 56.93,56.93 0 0 0 22.6,21.12 q 14.38,7.58 32.48,7.58 a 70.29,70.29 0 0 0 28.44,-5.54 54.67,54.67 0 0 0 21,-16 L 843.25,83.24 q -11.19,13.38 -27.13,13.37 z"
         id="path22"
         inkscape:connector-curvature="0"
         style="fill:#f2f2f2" />
      <path
         class="cls-1"
         d="M 1038.23,95.47 V 6.94 h -32.55 v 114.13 h 87.47 v -25.6 z"
         id="path24"
         inkscape:connector-curvature="0"
         style="fill:#f2f2f2" />
      <path
         class="cls-1"
         d="m 517.46,30 a 34,34 0 1 1 -34,34 34,34 0 0 1 34,-34 m 0,-30 a 64,64 0 1 0 64,64 64,64 0 0 0 -64,-64 z"
         id="path26"
         inkscape:connector-curvature="0"
         style="fill:#f2f2f2" />
      <path
         class="cls-2"
         d="m 531.3,62.34 a 13.84,13.84 0 1 1 -27.68,0 H 491.4 a 26.06,26.06 0 1 0 52.12,0 z"
         id="path28"
         inkscape:connector-curvature="0"
         style="fill:#00bdff" />
      <path
         style="opacity:0.39599998;fill:#000000;fill-opacity:1;stroke:none;stroke-width:1.9993701;stroke-linecap:round;stroke-linejoin:round;stroke-miterlimit:4;stroke-dasharray:3.99874016, 11.99622047;stroke-dashoffset:0;stroke-opacity:1;paint-order:markers stroke fill"
         d="m 508.6154,127.5369 c -14.25783,-2.16712 -25.79452,-8.04227 -36.29825,-18.48519 -12.58285,-12.509995 -18.82681,-27.569781 -18.75794,-45.242154 0.18758,-48.129916 50.98902,-78.702182 93.87326,-56.4928514 9.39279,4.8644314 21.82343,17.2950834 26.68787,26.6878664 16.65654,32.162301 3.85763,71.568419 -28.40233,87.446909 -11.24255,5.53363 -25.42683,7.86008 -37.10261,6.08542 z m 20.81469,-32.044333 c 13.98119,-5.432748 22.22072,-18.362989 21.32607,-33.466874 -0.53195,-8.980547 -2.92888,-14.643955 -8.89915,-21.026657 -6.21697,-6.646441 -12.9937,-9.780747 -22.31361,-10.320268 -20.09614,-1.163347 -35.8619,13.722774 -35.57628,33.591323 0.33974,23.633644 23.70217,39.678199 45.46297,31.222476 z"
         id="path3709"
         inkscape:connector-curvature="0" />
      <path
         style="opacity:0.39599998;fill:#000000;fill-opacity:1;stroke:none;stroke-width:1.9993701;stroke-linecap:round;stroke-linejoin:round;stroke-miterlimit:4;stroke-dasharray:3.99874016, 11.99622047;stroke-dashoffset:0;stroke-opacity:1;paint-order:markers stroke fill"
         d="M 332.89656,63.809556 V 6.6762791 l 33.5658,0.033221 c 36.33939,0.035966 44.12937,0.7629057 53.33417,4.9770019 11.2052,5.129909 17.0662,13.77975 17.05222,25.166137 -0.0119,9.652683 -3.4461,16.689067 -10.77657,22.079952 l -3.65559,2.688352 3.72542,1.679929 c 5.3922,2.431543 11.39047,8.611708 14.09781,14.525332 2.03419,4.443244 2.30391,6.196537 1.9906,12.939546 -0.42236,9.090302 -2.27431,13.62093 -7.73323,18.91862 -4.76029,4.61971 -11.67007,7.84734 -20.85974,9.7438 -5.96785,1.23159 -14.19866,1.51466 -44.04023,1.51466 h -36.70066 z m 69.8944,31.999999 c 1.74776,-0.73026 3.87649,-2.325352 4.73052,-3.54465 1.99583,-2.849452 1.99583,-9.306847 0,-12.156299 -2.9107,-4.155601 -6.60013,-4.872395 -25.07883,-4.872395 H 365.27208 V 86.186756 97.1373 h 17.17057 c 12.53045,0 18.02931,-0.358804 20.34831,-1.327745 z m -4.98195,-45.566029 c 4.1939,-1.810317 5.79028,-4.474242 5.72029,-9.545564 -0.0632,-4.583413 -2.82877,-7.90259 -7.71543,-9.260067 -1.87191,-0.520005 -9.5096,-0.947853 -16.97264,-0.950773 l -13.56915,-0.0053 v 11.066326 11.066326 l 14.52138,-0.431326 c 10.34235,-0.307197 15.52694,-0.865387 18.01555,-1.939611 z"
         id="path3711"
         inkscape:connector-curvature="0" />
      <path
         style="opacity:0.39599998;fill:#000000;fill-opacity:1;stroke:none;stroke-width:1.9993701;stroke-linecap:round;stroke-linejoin:round;stroke-miterlimit:4;stroke-dasharray:3.99874016, 11.99622047;stroke-dashoffset:0;stroke-opacity:1;paint-order:markers stroke fill"
         d="m 190.21463,120.15223 c 0.17866,-0.45938 11.63245,-26.189268 25.45286,-57.177516 L 240.7955,6.6324428 257.01148,6.8924163 273.22746,7.1523898 298.3009,63.284597 c 13.79039,30.872715 25.07344,56.475563 25.07344,56.895223 0,0.41966 -7.60586,0.75451 -16.90192,0.74412 l -16.90193,-0.0189 -16.07795,-39.997467 c -8.84288,-21.998605 -16.34686,-40.163655 -16.67551,-40.366776 -0.46372,-0.286592 -10.78032,24.072753 -13.98837,33.029017 -0.53817,1.502475 0.19288,1.666387 7.43208,1.666387 h 8.02895 l 4.4518,11.203841 c 2.44849,6.162113 4.4518,11.518357 4.4518,11.902766 0,0.384409 -7.85225,0.698925 -17.44945,0.698925 H 232.2944 l -4.2546,10.712487 -4.2546,10.71249 -16.94771,0.26039 c -9.44759,0.14514 -16.80395,-0.10926 -16.62286,-0.57488 z"
         id="path3713"
         inkscape:connector-curvature="0" />
      <path
         style="opacity:0.39599998;fill:#000000;fill-opacity:1;stroke:none;stroke-width:1.9993701;stroke-linecap:round;stroke-linejoin:round;stroke-miterlimit:4;stroke-dasharray:3.99874016, 11.99622047;stroke-dashoffset:0;stroke-opacity:1;paint-order:markers stroke fill"
         d="M 148.16563,63.809556 V 6.6762791 h 16.18776 16.18776 V 63.809556 120.94283 h -16.18776 -16.18776 z"
         id="path3715"
         inkscape:connector-curvature="0" />
      <path
         style="opacity:0.39599998;fill:#000000;fill-opacity:1;stroke:none;stroke-width:1.9993701;stroke-linecap:round;stroke-linejoin:round;stroke-miterlimit:4;stroke-dasharray:3.99874016, 11.99622047;stroke-dashoffset:0;stroke-opacity:1;paint-order:markers stroke fill"
         d="M 11.997988,85.773135 V 50.478458 H 28.66186 45.325732 v 22.3772 22.3772 h 11.855897 c 17.885815,0 25.455757,-2.142947 32.518297,-9.205488 5.046871,-5.046869 7.306321,-10.834246 7.804866,-19.99144 C 98.277824,51.836941 92.492367,41.144244 81.30011,36.0864 76.398402,33.871289 75.465828,33.802702 43.937124,33.338475 L 11.601325,32.862364 5.7378355,20.007377 -0.12565417,7.1523898 35.216971,6.8779877 C 56.039569,6.71632 73.689251,7.0124373 78.177366,7.5987553 105.10157,11.116077 124.17564,26.787359 129.617,49.861618 c 3.04297,12.903823 0.92257,30.757621 -4.97284,41.871372 -4.04657,7.628411 -14.69121,17.64742 -23.13737,21.7775 -13.538217,6.62002 -14.632376,6.76545 -54.03856,7.18219 l -35.470242,0.37513 z"
         id="path3717"
         inkscape:connector-curvature="0" />
      <path
         style="opacity:0.39599998;fill:#000000;fill-opacity:1;stroke:none;stroke-width:1.9993701;stroke-linecap:round;stroke-linejoin:round;stroke-miterlimit:4;stroke-dasharray:3.99874016, 11.99622047;stroke-dashoffset:0;stroke-opacity:1;paint-order:markers stroke fill"
         d="M 621.4196,76.664543 V 32.386254 H 603.80351 586.18742 V 19.531266 6.6762791 h 51.41995 51.41995 V 19.509785 32.343292 l -17.37804,0.259536 -17.37804,0.259536 -0.24757,44.040234 -0.24756,44.040232 H 637.59786 621.4196 Z"
         id="path3719"
         inkscape:connector-curvature="0" />
      <path
         style="opacity:0.39599998;fill:#000000;fill-opacity:1;stroke:none;stroke-width:1.9993701;stroke-linecap:round;stroke-linejoin:round;stroke-miterlimit:4;stroke-dasharray:3.99874016, 11.99622047;stroke-dashoffset:0;stroke-opacity:1;paint-order:markers stroke fill"
         d="M 701.40619,63.809556 V 6.6762791 h 16.18776 16.18777 V 63.809556 120.94283 h -16.18777 -16.18776 z"
         id="path3721"
         inkscape:connector-curvature="0" />
      <path
         style="opacity:0.39599998;fill:#000000;fill-opacity:1;stroke:none;stroke-width:1.9993701;stroke-linecap:round;stroke-linejoin:round;stroke-miterlimit:4;stroke-dasharray:3.99874016, 11.99622047;stroke-dashoffset:0;stroke-opacity:1;paint-order:markers stroke fill"
         d="m 803.06177,122.83098 c -25.22977,-3.9946 -44.22531,-20.76186 -50.26229,-44.366245 -8.34611,-32.632977 12.34285,-65.28377 45.86123,-72.3770404 10.68734,-2.26169 28.49873,-1.3976924 38.51168,1.8681307 8.72344,2.8452357 17.05243,7.9160717 23.08422,14.0540757 l 4.11446,4.186914 -3.25622,2.856664 c -1.79093,1.571165 -6.55437,5.81906 -10.58543,9.439766 l -7.32918,6.583102 -4.00348,-3.909899 c -7.77874,-7.596916 -19.20749,-10.95521 -29.82458,-8.763843 -10.74022,2.216779 -17.73052,7.596731 -22.14216,17.041282 -2.1336,4.567668 -2.48361,6.598195 -2.47624,14.365669 0.008,7.932846 0.3452,9.77989 2.74387,15.008719 5.00215,10.904136 13.67227,16.463732 26.74676,17.150994 9.4632,0.497432 16.28372,-1.792606 23.95942,-8.044549 6.14877,-5.008248 5.05971,-5.396655 17.46221,6.227754 9.34425,8.758026 9.33487,8.382226 0.39081,15.655246 -6.74815,5.48737 -15.03271,9.60693 -23.32811,11.60007 -7.68291,1.84598 -22.50556,2.55705 -29.66697,1.42319 z"
         id="path3723"
         inkscape:connector-curvature="0" />
      <path
         style="opacity:0.39599998;fill:#000000;fill-opacity:1;stroke:none;stroke-width:1.9993701;stroke-linecap:round;stroke-linejoin:round;stroke-miterlimit:4;stroke-dasharray:3.99874016, 11.99622047;stroke-dashoffset:0;stroke-opacity:1;paint-order:markers stroke fill"
         d="m 865.74452,113.56312 c 1.85068,-4.05885 13.30222,-29.766262 25.44788,-57.127594 l 22.08303,-49.747877 16.18776,-6.118e-4 16.18776,-6.118e-4 24.28164,54.4545396 c 13.35491,29.949996 24.80062,55.667295 25.43493,57.149545 l 1.15328,2.695 -17.24851,-0.25939 -17.24851,-0.2594 -16.21352,-40.25051 c -8.91744,-22.13778 -16.52903,-39.920512 -16.91465,-39.517183 -0.38562,0.403331 -3.5523,7.803572 -7.03707,16.44498 -3.48477,8.641408 -6.5594,16.23002 -6.83253,16.863583 -0.36199,0.839723 1.74918,1.226846 7.78941,1.428332 l 8.28598,0.2764 4.5553,11.426655 4.55529,11.426655 -17.71279,0.476111 -17.71278,0.476111 -4.25408,10.712486 -4.25408,10.71249 h -16.9493 -16.94929 z"
         id="path3725"
         inkscape:connector-curvature="0" />
      <path
         style="opacity:0.39599998;fill:#000000;fill-opacity:1;stroke:none;stroke-width:1.9993701;stroke-linecap:round;stroke-linejoin:round;stroke-miterlimit:4;stroke-dasharray:3.99874016, 11.99622047;stroke-dashoffset:0;stroke-opacity:1;paint-order:markers stroke fill"
         d="M 1005.1648,63.809556 V 6.6762791 h 16.6639 16.6638 V 50.954569 95.232858 h 27.6144 27.6145 v 12.854992 12.85498 h -44.2783 -44.2783 z"
         id="path3727"
         inkscape:connector-curvature="0" />
      <text
         xml:space="preserve"
         style="font-style:normal;font-variant:normal;font-weight:normal;font-stretch:normal;font-size:192px;line-height:1.25;font-family:'Open Sans';-inkscape-font-specification:'Open Sans';letter-spacing:32.97000122px;word-spacing:0px;fill:#48492d;fill-opacity:1;stroke:none"
         x="309.77344"
         y="179.34747"
         id="text3731"><tspan
           sodipodi:role="line"
           id="tspan3729"
           x="309.77344"
           y="179.34747"
           style="font-style:normal;font-variant:normal;font-weight:500;font-stretch:normal;font-size:64px;font-family:Harvest;-inkscape-font-specification:'Harvest Medium';letter-spacing:32.97000122px;fill:#48492d;fill-opacity:1">DISTRICT</tspan></text>
      <text
         xml:space="preserve"
         style="font-style:normal;font-variant:normal;font-weight:normal;font-stretch:normal;font-size:207.19844055px;line-height:1.25;font-family:'Open Sans';-inkscape-font-specification:'Open Sans';letter-spacing:35.57985687px;word-spacing:0px;fill:#ff8e00;fill-opacity:1;stroke:none;stroke-width:0.99999994;"
         x="308.14969"
         y="176.29999"
         id="text3731-4"
         transform="scale(0.97001236,1.0309147)"><tspan
           sodipodi:role="line"
           id="tspan3729-7"
           x="308.14969"
           y="176.29999"
           style="font-style:normal;font-variant:normal;font-weight:500;font-stretch:normal;font-size:69.06614685px;font-family:Harvest;-inkscape-font-specification:'Harvest Medium';letter-spacing:35.57985687px;fill:#ff8e00;fill-opacity:1;stroke-width:0.99999994;">DISTRICT</tspan></text>
    </g>
  </g>
  <g
     inkscape:groupmode="layer"
     id="layer1"
     inkscape:label="Layer 1"
     transform="translate(0.12565417,0.06058173)" />
</svg>
